<svg id="レイヤー_1" data-name="レイヤー 1" xmlns="http://www.w3.org/2000/svg" viewBox="0 0 453.54 165.46"><defs><style>.cls-1{fill:#f4f5f6;}.cls-2{font-size:12px;}.cls-2,.cls-5{font-family:YuGo-Medium-83pv-RKSJ-H, YuGothic;}.cls-3{letter-spacing:-0.5em;}.cls-4{fill:#ecedee;}.cls-10,.cls-5,.cls-6{font-size:11px;}.cls-5{fill:#6d6e6f;}.cls-10,.cls-6{font-family:YuGo-Bold-83pv-RKSJ-H, YuGothic;}.cls-7,.cls-8{fill:none;stroke:#e94f0e;stroke-miterlimit:10;}.cls-8{stroke-dasharray:12.09 12.09;}.cls-10,.cls-9{fill:#e94f0e;}.cls-11{font-family:KozGoPr6N-Regular-83pv-RKSJ-H, Kozuka Gothic Pr6N;}</style></defs><rect class="cls-1" x="23.27" y="29.97" width="180" height="84"/><text class="cls-2" transform="translate(38.43 62.61)">りんごは、赤いです<tspan class="cls-3" x="108" y="0">。</tspan><tspan x="0" y="21">ぶどうは、美味しいです</tspan><tspan class="cls-3" x="132" y="21">。</tspan></text><rect class="cls-4" x="23.27" y="29.97" width="53" height="16"/><text class="cls-5" transform="translate(27.43 42.12)">fruits.txt</text><rect class="cls-1" x="250.27" y="29.97" width="180" height="84"/><text class="cls-2" transform="translate(265.43 62.61)">りんごは、赤いです<tspan class="cls-3" x="108" y="0">。</tspan><tspan x="0" y="21">ぶどうは、美味しいです</tspan><tspan class="cls-3" x="132" y="21">。</tspan><tspan x="0" y="42">みかんは、美味しいです</tspan><tspan class="cls-3" x="132" y="42">。</tspan></text><rect class="cls-4" x="250.27" y="29.97" width="53" height="16"/><text class="cls-5" transform="translate(254.43 42.12)">fruits.txt</text><text class="cls-6" transform="translate(23.54 21.41)">古いファイル</text><text class="cls-6" transform="translate(250.7 21.41)">新しいファイル</text><polyline class="cls-7" points="407.61 103.47 407.61 109.47 401.61 109.47"/><line class="cls-8" x1="389.52" y1="109.47" x2="274.66" y2="109.47"/><polyline class="cls-7" points="268.61 109.47 262.61 109.47 262.61 103.47"/><polyline class="cls-7" points="262.61 95.47 262.61 89.47 268.61 89.47"/><line class="cls-8" x1="280.7" y1="89.47" x2="395.56" y2="89.47"/><polyline class="cls-7" points="401.61 89.47 407.61 89.47 407.61 95.47"/><line class="cls-7" x1="195.02" y1="99.47" x2="252.49" y2="99.47"/><path class="cls-9" d="M258.52,99.47a30.31,30.31,0,0,0-8.55,4.75l1.72-4.75L250,94.71A30.1,30.1,0,0,0,258.52,99.47Z"/><text class="cls-10" transform="translate(177.27 126.24)">新しく追加されてる<tspan class="cls-11"><tspan x="44" y="14">↓</tspan></tspan><tspan x="38.5" y="28">差分</tspan></text></svg>