<svg id="レイヤー_1" data-name="レイヤー 1" xmlns="http://www.w3.org/2000/svg" viewBox="0 0 283.46 283.46"><defs><style>.cls-1{fill:#fff;}.cls-2{fill:#7a7473;}.cls-3{fill:#211715;}.cls-4{font-size:7.82px;font-family:YuGo-Medium-83pv-RKSJ-H, YuGothic;}.cls-5{letter-spacing:0.25em;}.cls-6{font-size:12px;font-family:YuGo-Bold-83pv-RKSJ-H, YuGothic;}</style></defs><path class="cls-1" d="M180.26,196.39c-1.17,1.81-2.14,2.93-2.65,4a5.4,5.4,0,0,0-.56,2.82,18.25,18.25,0,0,0,.26,2.33,2.4,2.4,0,0,1-1.09,2.71c-1.47.67-2.34.69-3.18-.17-1.34-1.55-1.52-3.33-1.7-5.55.1-3.7,2-5.44,3.55-7.87a3.36,3.36,0,0,0-1.06-4.63,2.94,2.94,0,0,0-.53-.27,4.15,4.15,0,0,0-4.7,1.34c-.83,1.05-1.19,1.59-1.7,4.56a2.6,2.6,0,0,1-1.13,1.6,2.47,2.47,0,0,1-3.68-1c-1.32-2.11-.85-4.39.35-6.93,2.21-4.65,9.35-7.69,14.28-4.85C180.7,186.75,183.18,191.87,180.26,196.39Z"/><path class="cls-1" d="M181.13,214.87a2.92,2.92,0,0,1-2.26,2.69,2.81,2.81,0,0,1-2.12-.51,3,3,0,0,1-1.37-2.39,2.9,2.9,0,0,1,2.59-2.74,3,3,0,0,1,3.16,2.84Z"/><path class="cls-1" d="M192.54,213.9a23.93,23.93,0,0,1,2.9-10.68c.79-1.58,5.41-8.7,15.46-12.21a34.35,34.35,0,0,1,15.63-1.88c5.5.68,14.42,2.68,22.33,14.32a34.16,34.16,0,0,1,5.71,17.47,34.65,34.65,0,0,1-9.35,24.33c-2.56,2.79-7.24,6.56-7.6,10.38a23.29,23.29,0,0,0,.65,4.92c.71,2.15-1.23,2.59-2.48,3a46.13,46.13,0,0,1-4.62,1.21c-6.31,1.31-11.71,2.47-18,3.79-.67.13-2,.08-2-1.74.11-3.79-1.75-8.61-1.79-8.73a1.46,1.46,0,0,0-1.73-.86c-3,.8-7.54.37-10.88-.86a8.41,8.41,0,0,1-4.65-4.28,17.69,17.69,0,0,1-1.44-4.26,41.42,41.42,0,0,1-.89-6.36,6.85,6.85,0,0,0-1.54-2.87c-1.17-1.26-3.07-2.25-2.1-4.45a4.1,4.1,0,0,1,1.87-1.88c4-2.19,4.21-8.32,4.34-12.73a33,33,0,0,1,.4-7.16"/><path class="cls-2" d="M210.5,191.15c-9.78,3.56-14.28,10.51-15.06,12.07a23.67,23.67,0,0,0-2.81,9.48,12.5,12.5,0,0,1,8.22-1.31c6.78,1.24,12.53,5.59,16.27,9.44,2.08,2.33,2.57,4,4.51,7.48a5.94,5.94,0,0,1,3.28-2.41,4.21,4.21,0,0,1,3.55.55,6.19,6.19,0,0,1,2,5.1,10.69,10.69,0,0,1-2.86,7.09l.14.38c1.4,4,6.87,10.4,11.36,12.93,1.68-2.49,4.37-4.82,6.09-6.7a34.65,34.65,0,0,0,9.35-24.33,34.24,34.24,0,0,0-5.7-17.47C241,191.81,232,189.81,226.53,189.13A34.35,34.35,0,0,0,210.9,191Z"/><path class="cls-3" d="M179.15,195.74c-.83,1.28-1.87,2.48-2.58,3.84a8.06,8.06,0,0,0-.71,4.86,9,9,0,0,1,.22,1.86c-.07.65-.42.8-1,1s-.67.22-1,0a3.75,3.75,0,0,1-1-1.79,9.12,9.12,0,0,1-.25-4.55,10.59,10.59,0,0,1,1.86-3.72c.87-1.24,1.89-2.42,2-4a4.72,4.72,0,0,0-1.76-4,5,5,0,0,0-4.52-.85,6.1,6.1,0,0,0-3.26,2.47,7.81,7.81,0,0,0-1.21,2.92,6.39,6.39,0,0,1-.47,2,1.33,1.33,0,0,1-1.42.65,1.51,1.51,0,0,1-.8-.69,4,4,0,0,1-.68-2.11A8.47,8.47,0,0,1,164,189.1a10.21,10.21,0,0,1,6.24-4.21,8,8,0,0,1,7.9,2.35,6.85,6.85,0,0,1,1,8.5c-.88,1.41,1.35,2.7,2.23,1.3a9.22,9.22,0,0,0,0-9.87,10.66,10.66,0,0,0-8.09-5.07,12.9,12.9,0,0,0-8.91,2.89,10.78,10.78,0,0,0-2.86,3.37,10.35,10.35,0,0,0-1.43,5.73,5.88,5.88,0,0,0,2.44,4.37,3.82,3.82,0,0,0,5.06-1.21,6.16,6.16,0,0,0,.83-2.52c.07-.34.15-.68.24-1,0-.14.08-.27.13-.4s.16-.42.06-.21a5.87,5.87,0,0,1,.71-1.14l.2-.26a2.72,2.72,0,0,1,.24-.24,3,3,0,0,1,.78-.49A2.37,2.37,0,0,1,174,192c.6,1.36-.56,2.52-1.3,3.56a13.89,13.89,0,0,0-2.19,4.15,11.66,11.66,0,0,0-.06,5.63c.32,1.61,1.14,3.53,2.7,4.29a4.27,4.27,0,0,0,4.89-1.32c1-1.47.48-3.18.36-4.82a4.84,4.84,0,0,1,.33-2.44,11,11,0,0,1,1.06-1.7c.55-.78,1.11-1.55,1.63-2.35C182.28,195.65,180.05,194.35,179.15,195.74Z"/><path class="cls-3" d="M179.84,214.87V215c0,.14,0,.11,0-.09,0,0,0,.19,0,.21a.83.83,0,0,1-.06.21l0,.08h0l0-.08-.07.15a2.39,2.39,0,0,1-.13.21l-.09.13c.12-.15.14-.17,0-.07l-.08.09c-.06.07-.29.21-.31.3s.26-.18.07-.07l-.19.13-.14.07c-.23.13.29-.09,0,0a1.21,1.21,0,0,1-.46.12c.24,0,.15,0,0,0h-.27c-.26,0,.08,0,.08,0l-.24-.06-.19-.06c-.11,0-.2-.13.08,0a3.41,3.41,0,0,0-.33-.17l-.26-.17c-.21-.13.22.18.12.1l-.2-.18a1.7,1.7,0,0,1-.19-.19,1.42,1.42,0,0,1-.12-.13c-.13-.15.07.1.08.11s-.15-.21-.21-.31-.05-.11-.08-.16c-.13-.22.08.26,0,0s-.08-.27-.11-.41,0,.34,0,.06v-.21a1.5,1.5,0,0,0,0-.2l0,.18a.83.83,0,0,1,0-.15.75.75,0,0,1,0-.16.88.88,0,0,1,.05-.15q-.12.29,0,.09a3.9,3.9,0,0,1,.19-.35l.1-.13c-.15.27-.08.09,0,0s.3-.27.29-.28-.23.16-.07.05a2.61,2.61,0,0,1,.28-.17l.14-.07c.25-.14-.28.08,0,0a1.8,1.8,0,0,0,.4-.1c0,.06-.31,0-.07,0h.41c.24,0-.3-.07,0,0l.43.12c.25.08-.21-.12-.06,0a2.53,2.53,0,0,1,.23.12l.13.08.13.08-.08-.06c0,.1.26.24.33.32a.52.52,0,0,0,.1.11c-.12-.16-.14-.18-.06-.07a.57.57,0,0,1,.08.13l.08.13.07.14q.09.18,0-.09c0,.08.1.32.12.41s-.06.07,0-.06a1.32,1.32,0,0,0,2.56.61,1.41,1.41,0,0,0,0-.28,4.35,4.35,0,0,0-2.94-4,4.11,4.11,0,0,0-4.69,1.64,3.76,3.76,0,0,0-.69,2.47,4.18,4.18,0,0,0,1.06,2.4,4.43,4.43,0,0,0,3.19,1.55,4,4,0,0,0,2.8-1.16,4.38,4.38,0,0,0,1.27-2.87,1.29,1.29,0,0,0-1.29-1.29A1.33,1.33,0,0,0,179.84,214.87Z"/><path class="cls-3" d="M226.52,239.36a24.34,24.34,0,0,0,4.64,7.34,29.32,29.32,0,0,0,7,6.16,1.29,1.29,0,0,0,1.3-2.22A27.35,27.35,0,0,1,233.1,245a31,31,0,0,1-2.5-3.32,15.92,15.92,0,0,1-1.59-3,1.33,1.33,0,0,0-1.59-.91,1.31,1.31,0,0,0-.9,1.59Z"/><path class="cls-3" d="M200.51,212.64A26.63,26.63,0,0,1,210.63,217a24.77,24.77,0,0,1,7,6.56c1,1.61,1.82,3.38,2.73,5.06.79,1.46,3,.16,2.23-1.3s-1.59-3.18-2.51-4.7a19.37,19.37,0,0,0-3.25-3.92,36,36,0,0,0-9.06-6.36,26.36,26.36,0,0,0-6.54-2.19,1.32,1.32,0,0,0-1.58.9,1.3,1.3,0,0,0,.89,1.59Z"/><path class="cls-3" d="M223.1,228.55a4.21,4.21,0,0,1,2.61-1.5,2.7,2.7,0,0,1,2.5.93c1.14,1.42,1.14,3.47.8,5.16-.71,3.6-3.27,6.06-6.59,7.43a1.34,1.34,0,0,0-.9,1.59,1.31,1.31,0,0,0,1.59.9c3.51-1.45,6.46-3.77,7.86-7.4,1.32-3.43,1.34-9-2.59-10.73a6.26,6.26,0,0,0-7.1,1.8c-1.12,1.21.7,3,1.82,1.82Z"/><path class="cls-3" d="M198,207.65a15.19,15.19,0,0,0-7.72,6.06,1.29,1.29,0,1,0,2.22,1.3l.31-.45c.05-.08.11-.15.16-.22s.19-.25,0-.05c.23-.29.46-.57.71-.84a16.54,16.54,0,0,1,1.57-1.45c.16-.13-.24.17,0,0l.18-.13.45-.31c.31-.2.62-.39.94-.57s.65-.35,1-.5l.2-.09c-.24.11,0,0,.05,0l.57-.21a1.29,1.29,0,1,0-.69-2.49Z"/><path class="cls-3" d="M197,225.82c-.5,1.27-.53,4.3,1.8,4.76,3.1.25,3.6-3.36,2.71-5.16C200.73,223.94,198.27,223.14,197,225.82Z"/><path class="cls-3" d="M193.83,213.9a23.69,23.69,0,0,1,2.9-10.36c.18-.31.37-.61.57-.91s.25-.38.38-.56l.21-.28s.32-.42.15-.21a28.64,28.64,0,0,1,2.73-3,32.44,32.44,0,0,1,24-8.34c.59,0,1.18.09,1.77.16l.41.06.18,0c.57.09,1.13.18,1.69.29a28,28,0,0,1,3.9,1,26.66,26.66,0,0,1,8.45,4.84c7,5.9,11.73,14.71,12.11,23.9a33.29,33.29,0,0,1-7.09,21.58c-2.12,2.73-5,5.05-7.15,7.79a11.27,11.27,0,0,0-2.66,5.36,8.86,8.86,0,0,0,.09,2.3c.13,1,.28,2,.5,3a3.31,3.31,0,0,1,.17,1c0-.18,0,0,0,.05.09-.19,0,0-.05,0,.19-.19-.28.19-.08.05a2.19,2.19,0,0,1-.72.35l-1.14.36c-2.39.76-4.86,1.22-7.32,1.74-5,1.05-10,2-15,3.15-.21.05.06,0,.09,0h-.3s-.26,0-.1,0,0,0,0,0,.06,0,0,0c-.14-.94-.08-1.93-.21-2.89a29.74,29.74,0,0,0-1.3-5.52c-.12-.37-.24-.74-.38-1.09a2.83,2.83,0,0,0-2.45-1.88,21.89,21.89,0,0,0-2.76.41,20.07,20.07,0,0,1-3.29-.05,15.74,15.74,0,0,1-5.76-1.46,8.11,8.11,0,0,1-3.58-4.34,29.27,29.27,0,0,1-1.56-7.16,11.69,11.69,0,0,0-.51-3.1,8.13,8.13,0,0,0-1.89-2.84,8.29,8.29,0,0,1-1.53-1.6,1,1,0,0,1-.11-.69,2.08,2.08,0,0,1,.65-1.09c.66-.65,1.58-1,2.28-1.64a8.27,8.27,0,0,0,1.56-2c1.75-3.15,1.92-7.09,2-10.62a43.9,43.9,0,0,1,.37-7,1.33,1.33,0,0,0-.9-1.58,1.29,1.29,0,0,0-1.59.9,33.62,33.62,0,0,0-.43,3.75c-.08,1.3,0,2.6,0,3.9a34.86,34.86,0,0,1-.39,5.4,10.46,10.46,0,0,1-1.73,4.73,6.32,6.32,0,0,1-1.84,1.49,5.3,5.3,0,0,0-2.31,2.79c-.72,2.12.67,3.61,2.1,5a5.17,5.17,0,0,1,1.59,2.53c.22,1,.21,2.12.35,3.15.63,4.57,1.86,10,6.32,12.31a18.43,18.43,0,0,0,6.43,1.72,20.72,20.72,0,0,0,3.43.13,25,25,0,0,0,3-.43c.07,0,.12.07.18.09s-.09-.19,0-.07a4.59,4.59,0,0,1,.17.48c.24.69.47,1.4.66,2.11a26.53,26.53,0,0,1,.69,3c.18,1,.12,2.06.22,3.1.2,2,1.85,2.93,3.74,2.56,2.6-.51,5.19-1.09,7.79-1.64l7.79-1.64q3.69-.72,7.28-1.8c1.66-.54,3.34-1.49,3.21-3.5-.07-1-.42-2-.58-3a11.63,11.63,0,0,1-.22-2.43c.09-1.71,1.39-3.38,2.47-4.65,1.38-1.61,2.95-3,4.41-4.58a36.44,36.44,0,0,0,9.74-19.8,33.86,33.86,0,0,0-1.29-15.06A37.33,37.33,0,0,0,247.07,199a30.86,30.86,0,0,0-18-10.74A35.79,35.79,0,0,0,203,193.53a30.57,30.57,0,0,0-7.14,6.71,23.25,23.25,0,0,0-3.53,7.12,27.41,27.41,0,0,0-1.07,6.54c-.09,1.66,2.49,1.65,2.58,0Z"/><path class="cls-3" d="M191.17,244.43l.45-.07-.34,0a9.08,9.08,0,0,1,2.27,0l-.34,0a5,5,0,0,1,1.33.34l-.31-.13.13.06a1.41,1.41,0,0,0,1,.13,1.29,1.29,0,0,0,.9-1.59h0a1.3,1.3,0,0,0-.59-.77,7.08,7.08,0,0,0-2.6-.62,11.1,11.1,0,0,0-2.57.2,1.26,1.26,0,0,0-.77.59,1.29,1.29,0,0,0,.46,1.76,1.48,1.48,0,0,0,1,.13Z"/><path class="cls-1" d="M64,35.94v-6h-.72c-10.56,0-29,.15-32.94.14,0,15.32,0,33.55,0,43.06H64Z"/><path class="cls-3" d="M30.35,40.11l26.94-.06L64,40a1,1,0,0,0,0-2l-27.22.06H30.35a1,1,0,0,0,0,2Z"/><path class="cls-3" d="M30.34,48.12q13.48,0,27-.06H64a1,1,0,0,0,0-2l-27.23.06H30.34A1,1,0,0,0,30.34,48.12Z"/><path class="cls-3" d="M30.34,56.14l27-.07H64a1,1,0,0,0,0-2l-27.23.06-6.44,0A1,1,0,0,0,30.34,56.14Z"/><path class="cls-3" d="M30.34,64.15l27-.06H64a1,1,0,0,0,0-2l-27.23.07H30.34A1,1,0,0,0,30.34,64.15Z"/><path class="cls-3" d="M65,35.94v-6a1,1,0,0,0-1-1L49.31,29,35,29.06H30.35a1,1,0,0,0-1,1V73.11a1,1,0,0,0,1,1H64a1,1,0,0,0,1-1V35.94a1,1,0,0,0-2,0V73.11l1-1H30.34l1,1V30.05l-1,1c3.42,0,6.84,0,10.26,0l15.58-.08,7.82,0-1-1v6A1,1,0,0,0,65,35.94Z"/><text class="cls-4" transform="translate(14.94 84.58)">1989_01_04<tspan class="cls-5" x="42.51" y="0">_</tspan><tspan x="48.38" y="0">資料</tspan></text><path class="cls-1" d="M99.16,116.8v-6h-.73c-10.55,0-29,.14-32.93.14,0,15.32,0,33.55,0,43.05H99.16Z"/><path class="cls-3" d="M65.5,121q13.47,0,26.94-.06h6.72a1,1,0,0,0,0-2q-13.6,0-27.22.06H65.5a1,1,0,0,0,0,2Z"/><path class="cls-3" d="M65.49,129l27-.06,6.72,0a1,1,0,0,0,0-2L71.93,127H65.49A1,1,0,0,0,65.49,129Z"/><path class="cls-3" d="M65.49,137l27-.06h6.72a1,1,0,0,0,0-2L71.93,135H65.49A1,1,0,0,0,65.49,137Z"/><path class="cls-3" d="M65.49,145l27-.07h6.72a1,1,0,0,0,0-2q-13.62,0-27.23.06l-6.44,0A1,1,0,0,0,65.49,145Z"/><path class="cls-3" d="M100.15,116.8v-6a1,1,0,0,0-1-1l-14.71.06-14.31.07c-1.55,0-3.1,0-4.64,0a1,1,0,0,0-1,1v18.54q0,8.52,0,17.06V154a1,1,0,0,0,1,1H99.16a1,1,0,0,0,1-1q0-14,0-27.91V116.8a1,1,0,0,0-2,0V154l1-1H65.49l1,1v-43l-1,1c3.43,0,6.85,0,10.27,0l15.57-.07,7.83,0-1-1v6A1,1,0,0,0,100.15,116.8Z"/><text class="cls-4" transform="translate(50.09 165.44)">2020_01_05<tspan class="cls-5" x="42.51" y="0">_</tspan><tspan x="48.38" y="0">資料</tspan></text><path class="cls-1" d="M172.16,71.8v-6h-.73c-10.55,0-29,.14-32.93.14,0,15.32,0,33.55,0,43.05h33.67Z"/><path class="cls-3" d="M138.5,76q13.47,0,26.94-.06h6.72a1,1,0,0,0,0-2q-13.6,0-27.22.06H138.5a1,1,0,0,0,0,2Z"/><path class="cls-3" d="M138.49,84l26.95-.06,6.72,0a1,1,0,0,0,0-2L144.93,82h-6.44A1,1,0,0,0,138.49,84Z"/><path class="cls-3" d="M138.49,92l26.95-.06h6.72a1,1,0,0,0,0-2L144.93,90h-6.44A1,1,0,0,0,138.49,92Z"/><path class="cls-3" d="M138.49,100l26.95-.07h6.72a1,1,0,0,0,0-2q-13.62,0-27.23.06l-6.44,0A1,1,0,0,0,138.49,100Z"/><path class="cls-3" d="M173.15,71.8v-6a1,1,0,0,0-1-1l-14.71.06-14.31.07c-1.55,0-3.1,0-4.64,0a1,1,0,0,0-1,1V84.46q0,8.52,0,17.06V109a1,1,0,0,0,1,1h33.67a1,1,0,0,0,1-1q0-13.95,0-27.91V71.8a1,1,0,0,0-2,0V109l1-1H138.49l1,1v-43l-1,1c3.43,0,6.85,0,10.27,0l15.57-.07,7.83,0-1-1v6A1,1,0,0,0,173.15,71.8Z"/><text class="cls-4" transform="translate(123.09 120.44)">2021_04_10<tspan class="cls-5" x="42.51" y="0">_</tspan><tspan x="48.38" y="0">資料</tspan></text><path class="cls-1" d="M139.86,209.12v-6h-.72c-10.56,0-29,.14-32.94.14,0,15.32,0,33.55,0,43h33.67Z"/><path class="cls-3" d="M106.2,213.29q13.47,0,26.94-.06h6.72a1,1,0,0,0,0-2q-13.61,0-27.22.06H106.2a1,1,0,0,0,0,2Z"/><path class="cls-3" d="M106.19,221.31l26.95-.06,6.72,0a1,1,0,0,0,0-2l-27.23.06h-6.44A1,1,0,0,0,106.19,221.31Z"/><path class="cls-3" d="M106.19,229.32l26.95-.06h6.72a1,1,0,0,0,0-2l-27.23.06h-6.44A1,1,0,0,0,106.19,229.32Z"/><path class="cls-3" d="M106.19,237.34l26.95-.07h6.72a1,1,0,0,0,0-2l-27.23.06-6.44,0A1,1,0,0,0,106.19,237.34Z"/><path class="cls-3" d="M140.85,209.12v-6a1,1,0,0,0-1-1q-7.35,0-14.7.06l-14.32.07c-1.55,0-3.1,0-4.64,0a1,1,0,0,0-1,1v18.54q0,8.53,0,17.06v7.45a1,1,0,0,0,1,1h33.67a1,1,0,0,0,1-1V209.12a1,1,0,0,0-2,0v37.17l1-1H106.19l1,1v-43l-1,1c3.42,0,6.84,0,10.26,0l15.58-.07,7.82,0-1-1v6A1,1,0,0,0,140.85,209.12Z"/><text class="cls-4" transform="translate(90.79 257.76)">2020_01_06<tspan class="cls-5" x="42.51" y="0">_</tspan><tspan x="48.38" y="0">資料</tspan></text><path class="cls-1" d="M244.86,100.12v-6h-.72c-10.56,0-29,.14-32.94.14,0,15.32,0,33.55,0,43.05h33.67Z"/><path class="cls-3" d="M211.2,104.29q13.47,0,26.94-.06h6.72a1,1,0,0,0,0-2q-13.61,0-27.22.06H211.2a1,1,0,0,0,0,2Z"/><path class="cls-3" d="M211.19,112.31l26.95-.06,6.72,0a1,1,0,0,0,0-2l-27.23.06h-6.44A1,1,0,0,0,211.19,112.31Z"/><path class="cls-3" d="M211.19,120.32l26.95-.06h6.72a1,1,0,0,0,0-2l-27.23.06h-6.44A1,1,0,0,0,211.19,120.32Z"/><path class="cls-3" d="M211.19,128.34l26.95-.07h6.72a1,1,0,0,0,0-2l-27.23.06-6.44,0A1,1,0,0,0,211.19,128.34Z"/><path class="cls-3" d="M245.85,100.12v-6a1,1,0,0,0-1-1q-7.35,0-14.7.06l-14.32.07c-1.55,0-3.1,0-4.64,0a1,1,0,0,0-1,1v18.54q0,8.53,0,17.06v7.45a1,1,0,0,0,1,1h33.67a1,1,0,0,0,1-1V100.12a1,1,0,0,0-2,0v37.17l1-1H211.19l1,1v-43l-1,1c3.42,0,6.84,0,10.26,0L237,95.11l7.82,0-1-1v6A1,1,0,0,0,245.85,100.12Z"/><text class="cls-4" transform="translate(195.79 148.76)">2021_02_04<tspan class="cls-5" x="42.51" y="0">_</tspan><tspan x="48.38" y="0">資料</tspan></text><path class="cls-1" d="M239.6,19.83v-6h-.72c-10.56,0-29,.14-32.94.14,0,15.32,0,33.55,0,43.05H239.6Z"/><path class="cls-3" d="M205.94,24l26.94-.06h6.72a1,1,0,0,0,0-2Q226,22,212.38,22h-6.44a1,1,0,0,0,0,2Z"/><path class="cls-3" d="M205.93,32l26.95,0,6.72,0a1,1,0,0,0,0-2L212.37,30h-6.44A1,1,0,0,0,205.93,32Z"/><path class="cls-3" d="M205.93,40,232.88,40h6.72a1,1,0,0,0,0-2l-27.23.07h-6.44A1,1,0,0,0,205.93,40Z"/><path class="cls-3" d="M205.93,48.05,232.88,48h6.72a1,1,0,0,0,0-2l-27.23.06-6.44,0A1,1,0,0,0,205.93,48.05Z"/><path class="cls-3" d="M240.59,19.83v-6a1,1,0,0,0-1-1q-7.35,0-14.7.06L210.58,13h-4.64a1,1,0,0,0-1,1V57a1,1,0,0,0,1,1H239.6a1,1,0,0,0,1-1V19.83a1,1,0,0,0-2,0V57l1-1H205.93l1,1V14l-1,1c3.42,0,6.84,0,10.26,0l15.58-.07,7.82,0-1-1v6A1,1,0,0,0,240.59,19.83Z"/><text class="cls-4" transform="translate(190.53 68.47)">2050_04_01<tspan class="cls-5" x="42.51" y="0">_</tspan><tspan x="48.38" y="0">資料</tspan></text><path class="cls-1" d="M67.7,191.73v-6H67c-10.56,0-29,.15-32.94.14,0,15.32,0,33.55,0,43.05H67.7C67.7,220.58,67.71,205.66,67.7,191.73Z"/><path class="cls-3" d="M34,195.9l27-.06H67.7a1,1,0,0,0,0-2l-27.22.06H34a1,1,0,0,0,0,2Z"/><path class="cls-3" d="M34,203.92l27-.06H67.7a1,1,0,0,0,0-2l-27.22.05L34,202A1,1,0,0,0,34,203.92Z"/><path class="cls-3" d="M34,211.94l27-.07H67.7a1,1,0,0,0,0-2q-13.61,0-27.22.06H34A1,1,0,0,0,34,211.94Z"/><path class="cls-3" d="M34,220l27-.06,6.71,0a1,1,0,0,0,0-2L40.48,218,34,218A1,1,0,0,0,34,220Z"/><path class="cls-3" d="M68.69,191.73v-6a1,1,0,0,0-1-1l-14.7.05-14.32.07-4.64,0a1,1,0,0,0-1,1v43.06a1,1,0,0,0,1,1H67.7a1,1,0,0,0,1-1V191.73a1,1,0,0,0-2,0v37.18l1-1H34l1,1V185.85l-1,1c3.42,0,6.84,0,10.26,0l15.58-.08,7.82,0-1-1v6A1,1,0,0,0,68.69,191.73Z"/><text class="cls-4" transform="translate(18.63 240.37)">2019_02_04<tspan class="cls-5" x="42.51" y="0">_</tspan><tspan x="48.38" y="0">資料</tspan></text><text class="cls-6" transform="translate(200.79 185.31) rotate(-18.87)">ど</text><text class="cls-6" transform="matrix(1, -0.07, 0.07, 1, 211.67, 181.53)">の</text><text class="cls-6" transform="matrix(0.98, 0.18, -0.18, 0.98, 223.15, 180.62)">資</text><text class="cls-6" transform="translate(234.49 182.6) rotate(25)">料</text><text class="cls-6" transform="translate(244.94 187.4) rotate(39.82)">が</text><text class="cls-6" transform="translate(253.83 194.73) rotate(54.87)">最</text><text class="cls-6" transform="translate(260.49 204.06) rotate(70.22)">新</text><text class="cls-6" transform="matrix(0.07, 1, -1, 0.07, 264.44, 214.85)">だ</text><text class="cls-6" transform="translate(265.36 226.29) rotate(101.18)">？</text></svg>