<svg id="レイヤー_1" data-name="レイヤー 1" xmlns="http://www.w3.org/2000/svg" viewBox="0 0 283.46 283.46"><defs><style>.cls-1{fill:#fff;}.cls-2{fill:#211715;}.cls-3{font-size:7.82px;font-family:YuGo-Medium-83pv-RKSJ-H, YuGothic;}.cls-4{font-size:12px;font-family:YuGo-Bold-83pv-RKSJ-H, YuGothic;}.cls-5{fill:#7a7473;}.cls-6{fill:#ffda71;}.cls-7{letter-spacing:-0.5em;}</style></defs><path class="cls-1" d="M66,41.94v-6h-.72c-10.56,0-29,.15-32.94.14,0,15.32,0,33.55,0,43.06H66Z"/><path class="cls-2" d="M32.35,46.11l26.94-.06L66,46a1,1,0,0,0,0-2l-27.22.06H32.35a1,1,0,0,0,0,2Z"/><path class="cls-2" d="M32.34,54.12q13.48,0,26.95-.06H66a1,1,0,0,0,0-2l-27.23.06H32.34A1,1,0,0,0,32.34,54.12Z"/><path class="cls-2" d="M32.34,62.14l26.95-.07H66a1,1,0,0,0,0-2l-27.23.06-6.44,0A1,1,0,0,0,32.34,62.14Z"/><path class="cls-2" d="M32.34,70.15l26.95-.06H66a1,1,0,0,0,0-2l-27.23.07H32.34A1,1,0,0,0,32.34,70.15Z"/><path class="cls-2" d="M67,41.94v-6a1,1,0,0,0-1-1l-14.7,0L37,35.06H32.35a1,1,0,0,0-1,1V79.11a1,1,0,0,0,1,1H66a1,1,0,0,0,1-1V41.94a1,1,0,0,0-2,0V79.11l1-1H32.34l1,1V36.05l-1,1c3.42,0,6.84,0,10.26,0l15.58-.08,7.82,0-1-1v6A1,1,0,0,0,67,41.94Z"/><text class="cls-3" transform="translate(41.13 90.58)">資料</text><text class="cls-4" transform="translate(200.79 185.31) rotate(-18.87)">こ</text><text class="cls-4" transform="matrix(1, -0.07, 0.07, 1, 211.67, 181.53)">れ</text><text class="cls-4" transform="matrix(0.98, 0.18, -0.18, 0.98, 223.15, 180.62)">が</text><text class="cls-4" transform="translate(234.49 182.6) rotate(25)">最</text><text class="cls-4" transform="translate(244.94 187.4) rotate(39.82)">新</text><text class="cls-4" transform="translate(253.83 194.73) rotate(54.87)">版</text><text class="cls-4" transform="translate(260.49 204.06) rotate(70.22)">だ</text><text class="cls-4" transform="matrix(0.07, 1, -1, 0.07, 264.44, 214.85)">！</text><path class="cls-1" d="M192.47,213.49a23.79,23.79,0,0,1,2.89-10.65c.79-1.59,5.4-8.69,15.43-12.2a34.51,34.51,0,0,1,15.6-1.88c5.49.68,14.4,2.68,22.3,14.3a34.16,34.16,0,0,1,5.69,17.44,34.6,34.6,0,0,1-9.33,24.29c-2.55,2.79-7.22,6.55-7.58,10.36a23.28,23.28,0,0,0,.64,4.92c.71,2.14-1.23,2.58-2.47,3a43.58,43.58,0,0,1-4.62,1.21c-6.29,1.31-11.68,2.47-18,3.78-.66.14-2,.09-2-1.73.11-3.78-1.74-8.6-1.79-8.71a1.45,1.45,0,0,0-1.73-.86c-2.95.8-7.52.36-10.86-.86a8.39,8.39,0,0,1-4.63-4.27,17.69,17.69,0,0,1-1.44-4.26,41.13,41.13,0,0,1-.89-6.35,6.76,6.76,0,0,0-1.54-2.86c-1.17-1.26-3.06-2.25-2.09-4.44a4.06,4.06,0,0,1,1.87-1.88c4-2.19,4.19-8.3,4.32-12.71a32.83,32.83,0,0,1,.41-7.14"/><path class="cls-1" d="M168,206.33a39.92,39.92,0,0,0,3.31,6.72,1.78,1.78,0,0,0,1.12.83,3.71,3.71,0,0,0,1.81-.24,33.11,33.11,0,0,0,4.8-2,3,3,0,0,0,.86-1.55,3.46,3.46,0,0,0-.13-1c-.55-1.85-2.2-6.08-2.72-6.31"/><path class="cls-5" d="M210.39,190.78c-9.76,3.56-14.25,10.49-15,12.06a23.48,23.48,0,0,0-2.81,9.46,12.51,12.51,0,0,1,8.22-1.31c6.76,1.23,12.5,5.58,16.23,9.42,2.08,2.32,2.57,4,4.5,7.46a6,6,0,0,1,3.27-2.4,4.27,4.27,0,0,1,3.56.55,6.19,6.19,0,0,1,2,5.09,10.75,10.75,0,0,1-2.85,7.08l.13.38c1.39,4,6.86,10.38,11.34,12.9,1.68-2.48,4.36-4.8,6.08-6.68a34.6,34.6,0,0,0,9.33-24.29,34.16,34.16,0,0,0-5.69-17.44c-7.9-11.62-16.81-13.62-22.3-14.3a34.51,34.51,0,0,0-15.6,1.88Z"/><path class="cls-6" d="M169,183.24c.34,0,.69.08,1.06.14a10.23,10.23,0,0,1,8.15,6.86,12.77,12.77,0,0,1,.75,5,14.56,14.56,0,0,1-.59,3.82,14.15,14.15,0,0,1-1.26,2.91,45,45,0,0,1-9.91,3.85c-2.22,0-5.28-2.07-6.54-3.56a14.6,14.6,0,0,1-2.36-3.56,12.23,12.23,0,0,1-1-4.62,10.53,10.53,0,0,1,1.57-6,10.76,10.76,0,0,1,3.27-3.14,10.91,10.91,0,0,1,2.06-1.08A11.09,11.09,0,0,1,169,183.24Z"/><path class="cls-2" d="M226.39,238.91a24.24,24.24,0,0,0,4.62,7.33,29.7,29.7,0,0,0,7,6.15,1.28,1.28,0,0,0,1.29-2.22,27.26,27.26,0,0,1-6.32-5.61,29.79,29.79,0,0,1-2.5-3.3,15.7,15.7,0,0,1-1.59-3,1.31,1.31,0,0,0-1.58-.89,1.29,1.29,0,0,0-.9,1.58Z"/><path class="cls-2" d="M200.42,212.23a26.59,26.59,0,0,1,10.11,4.36,24.76,24.76,0,0,1,6.95,6.54c1,1.61,1.82,3.38,2.73,5.06.79,1.45,3,.16,2.22-1.3s-1.58-3.18-2.5-4.69a19,19,0,0,0-3.25-3.91,35.81,35.81,0,0,0-9-6.35,26.43,26.43,0,0,0-6.53-2.19,1.32,1.32,0,0,0-1.58.9,1.28,1.28,0,0,0,.9,1.58Z"/><path class="cls-2" d="M223,228.12a4.16,4.16,0,0,1,2.6-1.5,2.7,2.7,0,0,1,2.5.93c1.13,1.42,1.13,3.46.79,5.15-.71,3.59-3.26,6.05-6.57,7.42a1.33,1.33,0,0,0-.9,1.58,1.29,1.29,0,0,0,1.58.9c3.5-1.45,6.46-3.76,7.85-7.39,1.32-3.42,1.34-9-2.59-10.71a6.24,6.24,0,0,0-7.08,1.79c-1.12,1.22.69,3,1.82,1.82Z"/><path class="cls-2" d="M197.92,207.26a15.09,15.09,0,0,0-7.71,6.05,1.29,1.29,0,0,0,.46,1.76,1.31,1.31,0,0,0,1.76-.47l.3-.45.17-.22s.18-.25,0-.05a9.41,9.41,0,0,1,.71-.83,15.4,15.4,0,0,1,1.56-1.46c.16-.13-.24.18.05,0a1.09,1.09,0,0,1,.17-.13l.45-.31a10.23,10.23,0,0,1,.94-.57c.32-.18.65-.35,1-.5l.2-.09c-.24.11,0,0,0,0a5.37,5.37,0,0,1,.56-.21,1.29,1.29,0,1,0-.68-2.48Z"/><path class="cls-2" d="M196.87,225.39c-.5,1.27-.53,4.29,1.79,4.75,3.1.26,3.6-3.35,2.71-5.15C200.64,223.52,198.19,222.72,196.87,225.39Z"/><path class="cls-2" d="M190.86,242.74a46.77,46.77,0,0,1,5.16.1c.17,0-.27,0-.11,0l.16,0,.29.06a3.65,3.65,0,0,1,.57.14l.23.08s-.3-.15-.15-.06l.09,0,.15.1c.13.06-.25-.21-.15-.12l.07.07c-.28-.33-.13-.16,0,0s-.05-.07,0-.1a.88.88,0,0,0,0,.15l0,.14c0,.16-.07,0,0-.11a2,2,0,0,0,0,.35c0,.3.07-.25,0,.06,0,.11,0,.21-.08.32a1,1,0,0,1-.11.29c.15-.19.07-.14,0-.06s-.08.17-.13.25l-.22.38c-.05.06-.31.4-.13.18a7.08,7.08,0,0,1-.64.7l-.4.37-.17.14c.14-.11,0,0-.06,0a10.5,10.5,0,0,1-.9.57,1.29,1.29,0,0,0-.46,1.76,1.31,1.31,0,0,0,1.76.46,9.14,9.14,0,0,0,3.24-3,4.36,4.36,0,0,0,.71-3.66,2.93,2.93,0,0,0-2.34-1.93,17.38,17.38,0,0,0-3.29-.32c-1,0-2.05,0-3.08,0a1.29,1.29,0,0,0,0,2.57Z"/><path class="cls-2" d="M193.75,213.49a23.53,23.53,0,0,1,2.9-10.33c.17-.32.37-.62.57-.92s.25-.37.38-.55.14-.19.2-.29l.16-.2a27.48,27.48,0,0,1,2.72-3,32.43,32.43,0,0,1,23.95-8.33c.59,0,1.18.1,1.77.17l.4,0,.19,0c.56.08,1.12.18,1.68.28a29,29,0,0,1,3.89,1,26.67,26.67,0,0,1,8.44,4.83c6.95,5.89,11.71,14.68,12.09,23.86A33.26,33.26,0,0,1,246,241.69c-2.12,2.72-4.95,5-7.14,7.78a11.15,11.15,0,0,0-2.65,5.34,8.86,8.86,0,0,0,.09,2.3,28,28,0,0,0,.5,3,3.18,3.18,0,0,1,.16,1c0-.18,0,0,0,.05.09-.19,0,0,0,0,.18-.18-.28.19-.08,0a2.19,2.19,0,0,1-.72.35l-1.13.36c-2.4.75-4.86,1.22-7.31,1.74-5,1-10,2-15,3.14-.21.05.06,0,.09,0h-.3s-.25,0-.1,0,0,0,0,0,0,0,0,0c-.15-.94-.09-1.92-.22-2.88a30.73,30.73,0,0,0-1.29-5.52c-.12-.36-.24-.73-.39-1.09a2.8,2.8,0,0,0-2.44-1.86,20.17,20.17,0,0,0-2.76.4,20,20,0,0,1-3.28-.05,15.93,15.93,0,0,1-5.75-1.45A8.11,8.11,0,0,1,192.7,250a29.65,29.65,0,0,1-1.55-7.15,11.17,11.17,0,0,0-.52-3.08,8.1,8.1,0,0,0-1.88-2.84,8.17,8.17,0,0,1-1.52-1.59.94.94,0,0,1-.12-.69,2.07,2.07,0,0,1,.65-1.1c.66-.64,1.58-1,2.27-1.63a8.08,8.08,0,0,0,1.57-2c1.75-3.15,1.91-7.08,2-10.6a43.83,43.83,0,0,1,.37-7,1.32,1.32,0,0,0-.9-1.58,1.28,1.28,0,0,0-1.58.9,33.74,33.74,0,0,0-.44,3.74c-.07,1.3,0,2.6,0,3.9a36.1,36.1,0,0,1-.39,5.39,10.54,10.54,0,0,1-1.73,4.72,6.19,6.19,0,0,1-1.84,1.49,5.26,5.26,0,0,0-2.3,2.78c-.72,2.12.67,3.61,2.09,4.95a5.17,5.17,0,0,1,1.59,2.53c.22,1,.21,2.12.35,3.14.63,4.56,1.85,10,6.31,12.3a18.59,18.59,0,0,0,6.42,1.71,21.82,21.82,0,0,0,3.43.13,25.19,25.19,0,0,0,3-.44c.07,0,.12.08.18.09s-.09-.18,0-.06a3.8,3.8,0,0,1,.18.47c.24.7.46,1.4.66,2.11a30.92,30.92,0,0,1,.69,3c.17,1,.12,2.06.22,3.09.2,2,1.84,2.92,3.72,2.56,2.6-.51,5.19-1.09,7.78-1.64l7.79-1.64a69.77,69.77,0,0,0,7.25-1.8c1.67-.53,3.34-1.48,3.21-3.49-.07-1-.42-2-.57-3a11.54,11.54,0,0,1-.23-2.42c.09-1.71,1.39-3.38,2.47-4.64,1.38-1.61,2.94-3,4.4-4.57a36.35,36.35,0,0,0,9.72-19.77,33.73,33.73,0,0,0-1.29-15,37,37,0,0,0-7.15-12.7,30.77,30.77,0,0,0-17.95-10.72,35.7,35.7,0,0,0-26,5.3,30.27,30.27,0,0,0-7.13,6.7,22.84,22.84,0,0,0-3.52,7.11,26.69,26.69,0,0,0-1.07,6.53c-.09,1.65,2.48,1.64,2.57,0Z"/><path class="cls-2" d="M169,184.53a10,10,0,0,1,4.71,1.68,8.53,8.53,0,0,1,2.31,2.44,11,11,0,0,1,.59,1.06q.18.39.33.78a13.13,13.13,0,0,1-.94,10.88l.46-.46a41,41,0,0,1-7.84,3.25,4.62,4.62,0,0,1-1.9.39,5.9,5.9,0,0,1-1.63-.54,11.12,11.12,0,0,1-3.28-2.34,11.35,11.35,0,0,1-3.21-7.75,8.89,8.89,0,0,1,3.4-7.3,9.91,9.91,0,0,1,7-2.09,1.29,1.29,0,0,0,0-2.57,12.27,12.27,0,0,0-11.82,6.55,12.55,12.55,0,0,0-1.09,6.67,14.37,14.37,0,0,0,3.75,8.15,11.82,11.82,0,0,0,6.37,3.73,8.54,8.54,0,0,0,3.91-.67c1.4-.46,2.76-1,4.1-1.57,1-.44,2.07-.91,3.07-1.44a2.58,2.58,0,0,0,1.23-1.25,15.52,15.52,0,0,0,1.67-8.9,13,13,0,0,0-3.45-7.79A12.23,12.23,0,0,0,169,182a1.31,1.31,0,0,0-1.29,1.29A1.32,1.32,0,0,0,169,184.53Z"/><path class="cls-2" d="M171.06,211a79.12,79.12,0,0,0,7.77-3.31,1.3,1.3,0,0,0,.46-1.76,1.32,1.32,0,0,0-1.76-.46c-1.18.57-2.38,1.11-3.58,1.63l-.24.1c-.06,0-.17.07,0,0l-.47.2-.94.38q-.93.38-1.89.72a1.29,1.29,0,0,0,.68,2.48h0Z"/><path class="cls-2" d="M166.73,206.67a13.8,13.8,0,0,0,.82,2c.42.93.86,1.84,1.34,2.75a17.27,17.27,0,0,0,1.49,2.51A3.3,3.3,0,0,0,174,215a22.06,22.06,0,0,0,3-1.06,13.55,13.55,0,0,0,2.76-1.28,3.59,3.59,0,0,0,1.42-3,11.76,11.76,0,0,0-.82-2.89c-.39-1.06-.81-2.12-1.28-3.15a4.09,4.09,0,0,0-1.37-2c-1.45-.8-2.75,1.42-1.3,2.22a.62.62,0,0,1-.26-.27c0,.1.12.19.18.29.15.26.29.54.42.81.35.75.58,1.32.89,2.14s.55,1.47.78,2.21a3.51,3.51,0,0,1,.21,1c0-.33,0,0-.1.18,0-.05-.21.39-.19.36s-.14.09-.2.13l-.45.23c-.38.18-.76.34-1.14.5-.83.34-1.67.66-2.52,1a3.69,3.69,0,0,1-1.12.28c-.28,0-.35-.06-.54-.33a17.38,17.38,0,0,1-1.15-2c-.45-.87-.89-1.75-1.29-2.64-.1-.2-.19-.41-.28-.61s-.07-.15-.1-.23c.11.25,0-.08,0-.11a4.72,4.72,0,0,1-.25-.72,1.29,1.29,0,0,0-2.48.68Z"/><path class="cls-2" d="M162.11,172.26c0,1.17,0,2.35,0,3.53a1.29,1.29,0,1,0,2.57,0h0c0-1.18,0-2.36,0-3.53a1.29,1.29,0,0,0-2.57,0Z"/><path class="cls-2" d="M158.15,176.46l-.09-.12.2.26c-.59-.76-1.15-1.56-1.68-2.37a1.3,1.3,0,0,0-.77-.59,1.32,1.32,0,0,0-1,.13,1.28,1.28,0,0,0-.46,1.75c.61.95,1.28,1.86,2,2.75a1.25,1.25,0,0,0,.91.38,1.3,1.3,0,0,0,.91-.38,1.28,1.28,0,0,0,.38-.91l-.05-.34a1.23,1.23,0,0,0-.33-.56Z"/><path class="cls-2" d="M153.5,181.45c-1.05-.57-2.11-1.12-3.21-1.6a1.41,1.41,0,0,0-1-.13,1.3,1.3,0,0,0-.77.59,1.32,1.32,0,0,0-.13,1,1.27,1.27,0,0,0,.59.77c1.1.48,2.16,1,3.21,1.6a1.31,1.31,0,0,0,1,.13,1.29,1.29,0,0,0,.31-2.35Z"/><path class="cls-2" d="M174.63,193.68a7,7,0,0,0-7.31-.8,3.76,3.76,0,0,0,.16,6.32,3.66,3.66,0,0,0,4-.34,3.6,3.6,0,0,0,1.18-3.75c-.5-2.29-2.88-3.28-5-3.14a6.1,6.1,0,0,0-3.91,1.59,5.67,5.67,0,0,0-1.51,4.61,1.33,1.33,0,0,0,1.29,1.28,1.28,1.28,0,0,0,1.28-1.28,3.64,3.64,0,0,1,.45-2.44,2.93,2.93,0,0,1,1.8-1.1c.06,0,.51-.09.24,0a4,4,0,0,1,.49,0h.72c.36,0-.22-.06.13,0l.46.1c.07,0,.46.18.23.07l.39.22c.2.11.05,0,0,0l.24.23s.12.19,0,0l.12.19s.1.22,0,0a2.17,2.17,0,0,1,.07.24,2.1,2.1,0,0,1,.06.24c0-.18,0,0,0,0v.26s-.05.38,0,.23a2.29,2.29,0,0,1-.07.28c0,.09-.11.16,0,.05s-.13.08-.16.1a1.06,1.06,0,0,1-.92.25c.11,0-.15-.07-.18-.09a1.13,1.13,0,0,1-.37-.28.83.83,0,0,1-.2-.66c0-.11.08-.29,0,0a1.16,1.16,0,0,1,0-.18c0-.13.07-.26.12-.38-.11.26.08-.1.11-.17s.14-.2,0,0l.2-.21s.21-.18.09-.09.15-.08.17-.1c.34-.18-.11,0,.11,0,.05,0,.3-.07.13,0a8,8,0,0,1,1.62-.05A4.17,4.17,0,0,1,172,195a2.48,2.48,0,0,1,.82.5c1.19,1.15,3-.67,1.82-1.82Z"/><text class="cls-3" transform="translate(82.87 43.77)">金額を変更（2021/04/10 10:00<tspan class="cls-7" x="110.89" y="0">）</tspan><tspan x="0" y="21">新商品追加（2021/02/04 14:53</tspan><tspan class="cls-7" x="110.89" y="21">）</tspan><tspan x="0" y="42">プラン作成（2020/01/06 18:34</tspan><tspan class="cls-7" x="110.89" y="42">）</tspan><tspan x="0" y="63">担当者変更（2020/01/05 09:35</tspan><tspan class="cls-7" x="110.89" y="63">）</tspan><tspan x="0" y="84">企画再始動（2019/02/04 01:56)</tspan><tspan x="0" y="105">資料を作成（1989/01/04 09:00</tspan><tspan class="cls-7" x="110.89" y="105">）</tspan></text></svg>